<?xml version="1.0" encoding="utf-8"?>
<!-- Generator: Adobe Illustrator 25.2.0, SVG Export Plug-In . SVG Version: 6.00 Build 0)  -->
<svg version="1.1" id="Layer_1" xmlns="http://www.w3.org/2000/svg" xmlns:xlink="http://www.w3.org/1999/xlink" x="0px" y="0px"
	 viewBox="0 0 2175.76 574.09" style="enable-background:new 0 0 2175.76 574.09;" xml:space="preserve">
<style type="text/css">
	.st0{fill:#002333;}
	.st1{fill:#00C458;}
</style>
<g>
	<g>
		<path class="st0" d="M368.84,404.63h76.92v29.69H337.81V245.4h31.04V404.63z"/>
		<path class="st0" d="M485.43,379.27c2.16,10.25,7.1,18.13,14.84,23.61c7.73,5.49,17.18,8.23,28.34,8.23
			c15.47,0,27.08-5.58,34.82-16.73l24.02,14.03c-13.32,19.61-33.02,29.42-59.1,29.42c-21.95,0-39.67-6.7-53.16-20.11
			c-13.5-13.4-20.24-30.36-20.24-50.87c0-20.15,6.66-37.02,19.97-50.6c13.31-13.58,30.4-20.37,51.28-20.37
			c19.79,0,36.03,6.93,48.71,20.78c12.68,13.85,19.03,30.68,19.03,50.47c0,3.06-0.37,7.11-1.08,12.14H485.43z M485.16,355.51h79.35
			c-1.98-10.97-6.52-19.25-13.63-24.83c-7.11-5.58-15.43-8.37-24.96-8.37c-10.79,0-19.79,2.97-26.99,8.91
			C491.73,337.16,487.14,345.26,485.16,355.51z"/>
		<path class="st0" d="M725.62,299.38h29.15v134.94h-29.15v-19.43c-10.98,15.3-26.72,22.94-47.23,22.94
			c-18.53,0-34.37-6.88-47.5-20.65c-13.13-13.76-19.7-30.54-19.7-50.33c0-19.97,6.57-36.79,19.7-50.47
			c13.13-13.67,28.97-20.51,47.5-20.51c20.51,0,36.25,7.56,47.23,22.67V299.38z M652.49,397.75c8.1,8.19,18.26,12.28,30.5,12.28
			s22.4-4.09,30.5-12.28c8.1-8.18,12.14-18.48,12.14-30.9c0-12.42-4.05-22.71-12.14-30.9c-8.1-8.19-18.26-12.28-30.5-12.28
			s-22.4,4.09-30.5,12.28c-8.09,8.19-12.14,18.48-12.14,30.9C640.34,379.27,644.39,389.57,652.49,397.75z"/>
		<path class="st0" d="M817.92,322.05c7.37-16.73,21.23-25.1,41.56-25.1v31.58c-11.16-0.71-20.88,1.94-29.15,7.96
			c-8.27,6.03-12.41,15.97-12.41,29.82v68.01h-29.15V299.38h29.15V322.05z"/>
		<path class="st0" d="M952.05,295.87c15.47,0,27.98,4.95,37.51,14.84c9.54,9.9,14.31,23.48,14.31,40.75v82.85h-29.15v-79.89
			c0-10.07-2.7-17.81-8.09-23.21c-5.4-5.4-12.78-8.1-22.13-8.1c-10.25,0-18.53,3.2-24.83,9.58c-6.3,6.39-9.45,16.15-9.45,29.28
			v72.33h-29.15V299.38h29.15v17.27C919.03,302.8,932.98,295.87,952.05,295.87z"/>
		<path class="st1" d="M1062.83,277.11c-3.69,3.69-8.05,5.53-13.09,5.53c-5.04,0-9.4-1.84-13.09-5.53
			c-3.69-3.69-5.53-8.05-5.53-13.09c0-5.04,1.8-9.4,5.4-13.09c3.59-3.69,8-5.53,13.23-5.53c5.21,0,9.62,1.85,13.22,5.53
			c3.6,3.69,5.4,8.05,5.4,13.09C1068.37,269.06,1066.52,273.43,1062.83,277.11z"/>
		<rect x="1035.17" y="299.38" class="st0" width="29.15" height="134.94"/>
		<path class="st0" d="M1169.03,295.87c15.47,0,27.98,4.95,37.51,14.84c9.54,9.9,14.31,23.48,14.31,40.75v82.85h-29.15v-79.89
			c0-10.07-2.7-17.81-8.09-23.21c-5.4-5.4-12.78-8.1-22.13-8.1c-10.25,0-18.53,3.2-24.83,9.58c-6.3,6.39-9.45,16.15-9.45,29.28
			v72.33h-29.15V299.38h29.15v17.27C1136.01,302.8,1149.96,295.87,1169.03,295.87z"/>
		<path class="st0" d="M1359.56,299.38h28.61v128.73c0,20.51-6.75,36.25-20.24,47.23c-13.5,10.97-29.87,16.46-49.12,16.46
			c-31.13,0-52.45-10.89-63.96-32.66l25.1-14.57c7.02,13.85,20.15,20.78,39.4,20.78c12.59,0,22.44-3.28,29.55-9.85
			c7.1-6.57,10.66-15.7,10.66-27.4v-16.46c-10.97,15.65-26.63,23.48-46.96,23.48c-19.08,0-35.18-6.79-48.31-20.37
			c-13.13-13.58-19.7-30-19.7-49.26c0-19.25,6.57-35.67,19.7-49.25c13.13-13.58,29.24-20.37,48.31-20.37
			c20.33,0,35.98,7.83,46.96,23.48V299.38z M1286.02,395.73c8.19,8.09,18.39,12.14,30.63,12.14c12.23,0,22.44-4.05,30.63-12.14
			c8.18-8.1,12.28-18.17,12.28-30.23c0-12.05-4.09-22.13-12.28-30.23c-8.19-8.09-18.4-12.14-30.63-12.14
			c-12.24,0-22.44,4.05-30.63,12.14c-8.19,8.1-12.28,18.18-12.28,30.23C1273.74,377.56,1277.83,387.63,1286.02,395.73z"/>
		<g>
			<path class="st0" d="M337.22,82.28h20.64v125.63h-20.64V82.28z"/>
			<path class="st0" d="M428.93,115.85c10.29,0,18.6,3.29,24.95,9.87c6.34,6.58,9.51,15.62,9.51,27.1v55.1H444v-53.12
				c0-6.7-1.8-11.84-5.38-15.43c-3.59-3.59-8.5-5.38-14.72-5.38c-6.82,0-12.33,2.12-16.51,6.37c-4.19,4.25-6.28,10.74-6.28,19.47
				v48.1h-19.38v-89.73h19.38v11.48C406.97,120.45,416.24,115.85,428.93,115.85z"/>
			<path class="st0" d="M582.2,115.85c10.17,0,18.36,3.29,24.59,9.87c6.22,6.58,9.33,15.44,9.33,26.56v55.64h-19.38v-54.38
				c0-6.22-1.56-11.04-4.67-14.44c-3.11-3.41-7.36-5.12-12.74-5.12c-5.99,0-10.74,1.97-14.27,5.92c-3.53,3.95-5.29,9.87-5.29,17.77
				v50.25h-19.38v-54.38c0-6.22-1.47-11.04-4.4-14.44c-2.93-3.41-7.09-5.12-12.47-5.12c-5.87,0-10.65,2-14.36,6.01
				c-3.71,4.01-5.56,9.9-5.56,17.68v50.25h-19.38v-89.73h19.38v10.76c5.74-8.73,14.29-13.1,25.66-13.1
				c11.49,0,19.98,4.72,25.48,14.18C560.72,120.57,569.87,115.85,582.2,115.85z"/>
			<path class="st0" d="M708,118.18h19.38v89.73H708v-12.92c-7.3,10.17-17.77,15.25-31.41,15.25c-12.33,0-22.86-4.58-31.59-13.73
				c-8.73-9.15-13.1-20.31-13.1-33.47c0-13.28,4.37-24.46,13.1-33.56c8.73-9.09,19.26-13.64,31.59-13.64
				c13.64,0,24.11,5.02,31.41,15.07V118.18z M659.37,183.59c5.39,5.44,12.14,8.17,20.28,8.17c8.13,0,14.89-2.72,20.28-8.17
				c5.38-5.44,8.07-12.29,8.07-20.55c0-8.25-2.69-15.1-8.07-20.55c-5.39-5.44-12.14-8.17-20.28-8.17c-8.14,0-14.9,2.72-20.28,8.17
				c-5.38,5.44-8.07,12.29-8.07,20.55C651.29,171.3,653.98,178.15,659.37,183.59z"/>
			<path class="st0" d="M829.33,207.91h-23.15l-36.79-41.42v41.42H750V82.28h19.38v75.74l34.82-39.84h23.69l-39.48,43.96
				L829.33,207.91z"/>
			<path class="st0" d="M850.5,171.3c1.44,6.82,4.72,12.05,9.87,15.7c5.14,3.65,11.42,5.47,18.84,5.47
				c10.29,0,18.01-3.71,23.15-11.13l15.97,9.33c-8.85,13.04-21.96,19.56-39.3,19.56c-14.6,0-26.38-4.46-35.36-13.37
				c-8.97-8.91-13.46-20.19-13.46-33.83c0-13.4,4.42-24.61,13.28-33.65s20.22-13.55,34.1-13.55c13.16,0,23.96,4.61,32.4,13.82
				c8.43,9.22,12.65,20.4,12.65,33.56c0,2.03-0.24,4.73-0.72,8.08H850.5z M850.32,155.51h52.77c-1.32-7.3-4.34-12.8-9.06-16.51
				c-4.73-3.71-10.26-5.56-16.6-5.56c-7.18,0-13.16,1.97-17.95,5.92C854.69,143.3,851.64,148.69,850.32,155.51z"/>
			<path class="st0" d="M953.52,142.82c0,2.96,1.66,5.29,4.97,7c3.32,1.71,7.3,3.28,11.94,4.71c4.64,1.43,9.4,2.9,14.27,4.4
				c4.87,1.5,8.94,4.28,12.21,8.33c3.26,4.06,4.9,9.17,4.9,15.35c0,8.61-3.32,15.37-9.96,20.28c-6.64,4.91-14.99,7.36-25.04,7.36
				c-8.86,0-16.45-1.86-22.79-5.56c-6.34-3.71-10.95-8.85-13.82-15.44l16.69-9.69c3.11,8.62,9.75,12.92,19.92,12.92
				c10.17,0,15.25-3.35,15.25-10.05c0-2.87-1.65-5.2-4.93-7c-3.29-1.8-7.26-3.41-11.9-4.84c-4.64-1.43-9.4-2.9-14.27-4.4
				c-4.87-1.5-8.95-4.19-12.24-8.08c-3.29-3.89-4.93-8.82-4.93-14.81c0-8.25,3.14-14.9,9.42-19.92c6.28-5.02,14.09-7.53,23.42-7.53
				c7.42,0,14.03,1.64,19.83,4.93c5.8,3.29,10.26,7.87,13.37,13.73l-16.33,9.15c-3.11-6.81-8.73-10.22-16.87-10.22
				c-3.71,0-6.82,0.8-9.33,2.39C954.77,137.42,953.52,139.75,953.52,142.82z"/>
		</g>
		<path class="st1" d="M153.82,434.32V264.37c0-27.5,22.37-49.88,49.88-49.88h56.15v84.88h-31.1V245.4h-25.05
			c-10.46,0-18.97,8.51-18.97,18.97v138.85h75.12v31.1H153.82z"/>
		<rect x="228.75" y="335.75" class="st0" width="31.1" height="31.1"/>
		<path class="st1" d="M244.1,172.47c-10.49,10.51-22.9,15.74-37.22,15.74c-14.34,0-26.75-5.23-37.23-15.74
			c-10.49-10.48-15.74-22.89-15.74-37.22c0-14.33,5.11-26.74,15.35-37.23c10.22-10.48,22.76-15.74,37.61-15.74
			c14.83,0,27.37,5.26,37.6,15.74c10.24,10.49,15.35,22.9,15.35,37.23C259.84,149.58,254.6,161.99,244.1,172.47z"/>
		<g>
			<path class="st1" d="M1578.14,245.4h31.04v188.92h-31.04v-81.78h-80.97v81.78h-31.04V245.4h31.04v77.46h80.97V245.4z"/>
			<path class="st1" d="M1736.02,299.38h29.15v134.94h-29.15v-17.27c-8.82,13.86-22.76,20.78-41.83,20.78
				c-15.48,0-27.98-4.95-37.51-14.84c-9.54-9.89-14.31-23.48-14.31-40.75v-82.85h29.15v79.89c0,10.08,2.7,17.81,8.1,23.21
				c5.39,5.4,12.77,8.09,22.13,8.09c10.25,0,18.53-3.19,24.83-9.58c6.3-6.38,9.45-16.15,9.45-29.28V299.38z"/>
			<path class="st1" d="M1875.54,295.87c18.53,0,34.36,6.84,47.5,20.51c13.13,13.68,19.7,30.5,19.7,50.47
				c0,19.79-6.57,36.57-19.7,50.33c-13.13,13.76-28.97,20.65-47.5,20.65c-20.51,0-36.26-7.65-47.23-22.94v19.43h-29.15V245.4h29.15
				v73.14C1839.29,303.43,1855.03,295.87,1875.54,295.87z M1840.46,397.75c8.09,8.19,18.26,12.28,30.5,12.28
				c12.23,0,22.4-4.09,30.49-12.28c8.1-8.18,12.14-18.48,12.14-30.9c0-12.42-4.05-22.71-12.14-30.9
				c-8.09-8.19-18.26-12.28-30.49-12.28c-12.24,0-22.4,4.09-30.5,12.28c-8.1,8.19-12.14,18.48-12.14,30.9
				C1828.32,379.27,1832.36,389.57,1840.46,397.75z"/>
		</g>
	</g>
	<g>
		<path class="st0" d="M1972.98,141.94v6.53h-11.69v35.02h-6.83v-35.02h-11.75v-6.53H1972.98z"/>
		<path class="st0" d="M2017.79,141.94v41.55h-6.83v-29.62l-12.64,20.89l-0.83,0l-12.64-20.95v29.68h-6.83v-41.55h7.36l12.53,20.77
			l12.57-20.77H2017.79z"/>
	</g>
</g>
</svg>
