<svg enable-background="new 0 0 2175.76 574.09" viewBox="0 0 2175.76 574.09" xmlns="http://www.w3.org/2000/svg"><path d="m368.84 404.63h76.92v29.69h-107.95v-188.92h31.04v159.23z" fill="#002333"/><path d="m485.43 379.27c2.16 10.25 7.1 18.13 14.84 23.61 7.73 5.49 17.18 8.23 28.34 8.23 15.47 0 27.08-5.58 34.82-16.73l24.02 14.03c-13.32 19.61-33.02 29.42-59.1 29.42-21.95 0-39.67-6.7-53.16-20.11-13.5-13.4-20.24-30.36-20.24-50.87 0-20.15 6.66-37.02 19.97-50.6s30.4-20.37 51.28-20.37c19.79 0 36.03 6.93 48.71 20.78s19.03 30.68 19.03 50.47c0 3.06-.37 7.11-1.08 12.14zm-.27-23.76h79.35c-1.98-10.97-6.52-19.25-13.63-24.83s-15.43-8.37-24.96-8.37c-10.79 0-19.79 2.97-26.99 8.91s-11.79 14.04-13.77 24.29z" fill="#002333"/><path d="m725.62 299.38h29.15v134.94h-29.15v-19.43c-10.98 15.3-26.72 22.94-47.23 22.94-18.53 0-34.37-6.88-47.5-20.65-13.13-13.76-19.7-30.54-19.7-50.33 0-19.97 6.57-36.79 19.7-50.47 13.13-13.67 28.97-20.51 47.5-20.51 20.51 0 36.25 7.56 47.23 22.67zm-73.13 98.37c8.1 8.19 18.26 12.28 30.5 12.28s22.4-4.09 30.5-12.28c8.1-8.18 12.14-18.48 12.14-30.9s-4.05-22.71-12.14-30.9c-8.1-8.19-18.26-12.28-30.5-12.28s-22.4 4.09-30.5 12.28c-8.09 8.19-12.14 18.48-12.14 30.9-.01 12.42 4.04 22.72 12.14 30.9z" fill="#002333"/><path d="m817.92 322.05c7.37-16.73 21.23-25.1 41.56-25.1v31.58c-11.16-.71-20.88 1.94-29.15 7.96-8.27 6.03-12.41 15.97-12.41 29.82v68.01h-29.15v-134.94h29.15z" fill="#002333"/><path d="m952.05 295.87c15.47 0 27.98 4.95 37.51 14.84 9.54 9.9 14.31 23.48 14.31 40.75v82.85h-29.15v-79.89c0-10.07-2.7-17.81-8.09-23.21-5.4-5.4-12.78-8.1-22.13-8.1-10.25 0-18.53 3.2-24.83 9.58-6.3 6.39-9.45 16.15-9.45 29.28v72.33h-29.15v-134.92h29.15v17.27c8.81-13.85 22.76-20.78 41.83-20.78z" fill="#002333"/><path d="m1062.83 277.11c-3.69 3.69-8.05 5.53-13.09 5.53s-9.4-1.84-13.09-5.53-5.53-8.05-5.53-13.09 1.8-9.4 5.4-13.09c3.59-3.69 8-5.53 13.23-5.53 5.21 0 9.62 1.85 13.22 5.53 3.6 3.69 5.4 8.05 5.4 13.09s-1.85 9.41-5.54 13.09z" fill="#00c458"/><g fill="#002333"><path d="m1035.17 299.38h29.15v134.94h-29.15z"/><path d="m1169.03 295.87c15.47 0 27.98 4.95 37.51 14.84 9.54 9.9 14.31 23.48 14.31 40.75v82.85h-29.15v-79.89c0-10.07-2.7-17.81-8.09-23.21-5.4-5.4-12.78-8.1-22.13-8.1-10.25 0-18.53 3.2-24.83 9.58-6.3 6.39-9.45 16.15-9.45 29.28v72.33h-29.15v-134.92h29.15v17.27c8.81-13.85 22.76-20.78 41.83-20.78z"/><path d="m1359.56 299.38h28.61v128.73c0 20.51-6.75 36.25-20.24 47.23-13.5 10.97-29.87 16.46-49.12 16.46-31.13 0-52.45-10.89-63.96-32.66l25.1-14.57c7.02 13.85 20.15 20.78 39.4 20.78 12.59 0 22.44-3.28 29.55-9.85 7.1-6.57 10.66-15.7 10.66-27.4v-16.46c-10.97 15.65-26.63 23.48-46.96 23.48-19.08 0-35.18-6.79-48.31-20.37s-19.7-30-19.7-49.26c0-19.25 6.57-35.67 19.7-49.25s29.24-20.37 48.31-20.37c20.33 0 35.98 7.83 46.96 23.48zm-73.54 96.35c8.19 8.09 18.39 12.14 30.63 12.14 12.23 0 22.44-4.05 30.63-12.14 8.18-8.1 12.28-18.17 12.28-30.23 0-12.05-4.09-22.13-12.28-30.23-8.19-8.09-18.4-12.14-30.63-12.14-12.24 0-22.44 4.05-30.63 12.14-8.19 8.1-12.28 18.18-12.28 30.23 0 12.06 4.09 22.13 12.28 30.23z"/><path d="m337.22 82.28h20.64v125.63h-20.64z"/><path d="m428.93 115.85c10.29 0 18.6 3.29 24.95 9.87 6.34 6.58 9.51 15.62 9.51 27.1v55.1h-19.39v-53.12c0-6.7-1.8-11.84-5.38-15.43-3.59-3.59-8.5-5.38-14.72-5.38-6.82 0-12.33 2.12-16.51 6.37-4.19 4.25-6.28 10.74-6.28 19.47v48.1h-19.38v-89.73h19.38v11.48c5.86-9.23 15.13-13.83 27.82-13.83z"/><path d="m582.2 115.85c10.17 0 18.36 3.29 24.59 9.87 6.22 6.58 9.33 15.44 9.33 26.56v55.64h-19.38v-54.38c0-6.22-1.56-11.04-4.67-14.44-3.11-3.41-7.36-5.12-12.74-5.12-5.99 0-10.74 1.97-14.27 5.92s-5.29 9.87-5.29 17.77v50.25h-19.38v-54.38c0-6.22-1.47-11.04-4.4-14.44-2.93-3.41-7.09-5.12-12.47-5.12-5.87 0-10.65 2-14.36 6.01s-5.56 9.9-5.56 17.68v50.25h-19.38v-89.73h19.38v10.76c5.74-8.73 14.29-13.1 25.66-13.1 11.49 0 19.98 4.72 25.48 14.18 5.98-9.46 15.13-14.18 27.46-14.18z"/><path d="m708 118.18h19.38v89.73h-19.38v-12.92c-7.3 10.17-17.77 15.25-31.41 15.25-12.33 0-22.86-4.58-31.59-13.73s-13.1-20.31-13.1-33.47c0-13.28 4.37-24.46 13.1-33.56 8.73-9.09 19.26-13.64 31.59-13.64 13.64 0 24.11 5.02 31.41 15.07zm-48.63 65.41c5.39 5.44 12.14 8.17 20.28 8.17 8.13 0 14.89-2.72 20.28-8.17 5.38-5.44 8.07-12.29 8.07-20.55 0-8.25-2.69-15.1-8.07-20.55-5.39-5.44-12.14-8.17-20.28-8.17s-14.9 2.72-20.28 8.17c-5.38 5.44-8.07 12.29-8.07 20.55-.01 8.26 2.68 15.11 8.07 20.55z"/><path d="m829.33 207.91h-23.15l-36.79-41.42v41.42h-19.39v-125.63h19.38v75.74l34.82-39.84h23.69l-39.48 43.96z"/><path d="m850.5 171.3c1.44 6.82 4.72 12.05 9.87 15.7 5.14 3.65 11.42 5.47 18.84 5.47 10.29 0 18.01-3.71 23.15-11.13l15.97 9.33c-8.85 13.04-21.96 19.56-39.3 19.56-14.6 0-26.38-4.46-35.36-13.37-8.97-8.91-13.46-20.19-13.46-33.83 0-13.4 4.42-24.61 13.28-33.65s20.22-13.55 34.1-13.55c13.16 0 23.96 4.61 32.4 13.82 8.43 9.22 12.65 20.4 12.65 33.56 0 2.03-.24 4.73-.72 8.08h-71.42zm-.18-15.79h52.77c-1.32-7.3-4.34-12.8-9.06-16.51-4.73-3.71-10.26-5.56-16.6-5.56-7.18 0-13.16 1.97-17.95 5.92-4.79 3.94-7.84 9.33-9.16 16.15z"/><path d="m953.52 142.82c0 2.96 1.66 5.29 4.97 7 3.32 1.71 7.3 3.28 11.94 4.71s9.4 2.9 14.27 4.4 8.94 4.28 12.21 8.33c3.26 4.06 4.9 9.17 4.9 15.35 0 8.61-3.32 15.37-9.96 20.28s-14.99 7.36-25.04 7.36c-8.86 0-16.45-1.86-22.79-5.56-6.34-3.71-10.95-8.85-13.82-15.44l16.69-9.69c3.11 8.62 9.75 12.92 19.92 12.92s15.25-3.35 15.25-10.05c0-2.87-1.65-5.2-4.93-7-3.29-1.8-7.26-3.41-11.9-4.84s-9.4-2.9-14.27-4.4-8.95-4.19-12.24-8.08-4.93-8.82-4.93-14.81c0-8.25 3.14-14.9 9.42-19.92s14.09-7.53 23.42-7.53c7.42 0 14.03 1.64 19.83 4.93s10.26 7.87 13.37 13.73l-16.33 9.15c-3.11-6.81-8.73-10.22-16.87-10.22-3.71 0-6.82.8-9.33 2.39-2.53 1.59-3.78 3.92-3.78 6.99z"/></g><path d="m153.82 434.32v-169.95c0-27.5 22.37-49.88 49.88-49.88h56.15v84.88h-31.1v-53.97h-25.05c-10.46 0-18.97 8.51-18.97 18.97v138.85h75.12v31.1z" fill="#00c458"/><path d="m228.75 335.75h31.1v31.1h-31.1z" fill="#002333"/><path d="m244.1 172.47c-10.49 10.51-22.9 15.74-37.22 15.74-14.34 0-26.75-5.23-37.23-15.74-10.49-10.48-15.74-22.89-15.74-37.22s5.11-26.74 15.35-37.23c10.22-10.48 22.76-15.74 37.61-15.74 14.83 0 27.37 5.26 37.6 15.74 10.24 10.49 15.35 22.9 15.35 37.23.02 14.33-5.22 26.74-15.72 37.22z" fill="#00c458"/><path d="m1578.14 245.4h31.04v188.92h-31.04v-81.78h-80.97v81.78h-31.04v-188.92h31.04v77.46h80.97z" fill="#00c458"/><path d="m1736.02 299.38h29.15v134.94h-29.15v-17.27c-8.82 13.86-22.76 20.78-41.83 20.78-15.48 0-27.98-4.95-37.51-14.84-9.54-9.89-14.31-23.48-14.31-40.75v-82.85h29.15v79.89c0 10.08 2.7 17.81 8.1 23.21 5.39 5.4 12.77 8.09 22.13 8.09 10.25 0 18.53-3.19 24.83-9.58 6.3-6.38 9.45-16.15 9.45-29.28v-72.34z" fill="#00c458"/><path d="m1875.54 295.87c18.53 0 34.36 6.84 47.5 20.51 13.13 13.68 19.7 30.5 19.7 50.47 0 19.79-6.57 36.57-19.7 50.33s-28.97 20.65-47.5 20.65c-20.51 0-36.26-7.65-47.23-22.94v19.43h-29.15v-188.92h29.15v73.14c10.98-15.11 26.72-22.67 47.23-22.67zm-35.08 101.88c8.09 8.19 18.26 12.28 30.5 12.28 12.23 0 22.4-4.09 30.49-12.28 8.1-8.18 12.14-18.48 12.14-30.9s-4.05-22.71-12.14-30.9-18.26-12.28-30.49-12.28c-12.24 0-22.4 4.09-30.5 12.28s-12.14 18.48-12.14 30.9 4.04 22.72 12.14 30.9z" fill="#00c458"/><path d="m1972.98 141.94v6.53h-11.69v35.02h-6.83v-35.02h-11.75v-6.53z" fill="#002333"/><path d="m2017.79 141.94v41.55h-6.83v-29.62l-12.64 20.89h-.83l-12.64-20.95v29.68h-6.83v-41.55h7.36l12.53 20.77 12.57-20.77z" fill="#002333"/></svg>